<svg width="85" height="85" viewBox="0 0 85 85" fill="none" xmlns="http://www.w3.org/2000/svg">
<g filter="url(#filter0_d_2015_2)">
<rect x="15" y="15" width="55" height="55" rx="27.5" fill="white"/>
</g>
<path d="M53 34C53 32.8954 52.1046 32 51 32H33C31.8954 32 31 32.8954 31 34C31 35.1046 31.8954 36 33 36H49V52C49 53.1046 49.8954 54 51 54C52.1046 54 53 53.1046 53 52V34ZM34 51L35.4142 52.4142L52.4142 35.4142L51 34L49.5858 32.5858L32.5858 49.5858L34 51Z" fill="black"/>
<defs>
<filter id="filter0_d_2015_2" x="0.1" y="0.1" width="84.8" height="84.8" filterUnits="userSpaceOnUse" color-interpolation-filters="sRGB">
<feFlood flood-opacity="0" result="BackgroundImageFix"/>
<feColorMatrix in="SourceAlpha" type="matrix" values="0 0 0 0 0 0 0 0 0 0 0 0 0 0 0 0 0 0 127 0" result="hardAlpha"/>
<feOffset/>
<feGaussianBlur stdDeviation="7.45"/>
<feComposite in2="hardAlpha" operator="out"/>
<feColorMatrix type="matrix" values="0 0 0 0 0 0 0 0 0 0 0 0 0 0 0 0 0 0 0.25 0"/>
<feBlend mode="normal" in2="BackgroundImageFix" result="effect1_dropShadow_2015_2"/>
<feBlend mode="normal" in="SourceGraphic" in2="effect1_dropShadow_2015_2" result="shape"/>
</filter>
</defs>
</svg>
